# xmcd
#
# Track frame offsets:
# 150
# 30684
# 46972
# 68962
# 84713
# 120715
# 134314
# 150392
# 174483
# 193647
# 217832
# 238257
# 253258
# 264209
# 275279
# 283139
# 302471
#
# Disc length: 4267 seconds
#
#
# Revision: 0
# Processed by: cddbd v1.5.2PL0 Copyright (c) Steve Scherf et al.
# Submitted via: FreeRIP 2.943 
#
DISCID=f010a911
DTITLE=across tundras - moonshinin' [cd-r]
DYEAR=2010
DGENRE=Meditative
TTITLE0=final breath over venom falls
TTITLE1=stone crazy horse [acoustic demo]
TTITLE2=weary travelers rest [demo]
TTITLE3=the foxe trot
TTITLE4=(there is) no heart in my chest
TTITLE5=fallin' to the nethers [demo]
TTITLE6=phantom ride [from full moon blizzard]
TTITLE7=treading sand
TTITLE8=devilish man
TTITLE9=thunder snow sky
TTITLE10=bullet in the butt
TTITLE11=scotwild
TTITLE12=taste the fruitflies
TTITLE13=scotflesh
TTITLE14=acid
TTITLE15=oh bury me not ... [from full moon blizzard]
TTITLE16=the end times are coming
EXTD=
EXTT0=
EXTT1=
EXTT2=
EXTT3=
EXTT4=
EXTT5=
EXTT6=
EXTT7=
EXTT8=
EXTT9=
EXTT10=
EXTT11=
EXTT12=
EXTT13=
EXTT14=
EXTT15=
EXTT16=
PLAYORDER=
